<svg width="23" height="23" viewBox="0 0 23 23" fill="none" xmlns="http://www.w3.org/2000/svg">
<path fill-rule="evenodd" clip-rule="evenodd" d="M11.5001 21.0837C16.7928 21.0837 21.0834 16.793 21.0834 11.5003C21.0834 6.20759 16.7928 1.91699 11.5001 1.91699C6.20735 1.91699 1.91675 6.20759 1.91675 11.5003C1.91675 16.793 6.20735 21.0837 11.5001 21.0837ZM12.2188 8.62533C12.2188 8.22837 11.897 7.90658 11.5001 7.90658C11.1031 7.90658 10.7813 8.22837 10.7813 8.62533V10.7816H8.62508C8.22813 10.7816 7.90633 11.1034 7.90633 11.5003C7.90633 11.8973 8.22813 12.2191 8.62508 12.2191H10.7813V14.3753C10.7813 14.7723 11.1031 15.0941 11.5001 15.0941C11.897 15.0941 12.2188 14.7723 12.2188 14.3753V12.2191H14.3751C14.772 12.2191 15.0938 11.8973 15.0938 11.5003C15.0938 11.1034 14.772 10.7816 14.3751 10.7816H12.2188V8.62533Z" fill="white"/>
</svg>
