<svg width="19" height="19" viewBox="0 0 19 19" fill="none" xmlns="http://www.w3.org/2000/svg">
<path fill-rule="evenodd" clip-rule="evenodd" d="M7.91658 1.78125C7.36368 1.78125 6.88642 2.10514 6.66419 2.57353C6.12306 2.57746 5.7013 2.6023 5.32483 2.74944C4.87501 2.92525 4.48376 3.2241 4.19582 3.61182C3.90533 4.00298 3.76897 4.50433 3.58129 5.19439L3.54456 5.32925L3.13865 7.67499C2.99177 7.77632 2.8642 7.89631 2.75326 8.03842C2.0401 8.95177 2.3797 10.3102 3.05891 13.027C3.4909 14.755 3.7069 15.6189 4.35114 16.122C4.99538 16.625 5.88595 16.625 7.66709 16.625H11.333C13.1142 16.625 14.0048 16.625 14.649 16.122C15.2932 15.6189 15.5092 14.755 15.9413 13.027C16.6204 10.3102 16.9601 8.95177 16.2468 8.03842C16.1359 7.89619 16.0082 7.77612 15.8611 7.67475L15.4553 5.32925L15.4185 5.19439C15.2308 4.50433 15.0945 4.00298 14.804 3.61182C14.5161 3.2241 14.1248 2.92525 13.675 2.74944C13.2985 2.6023 12.8768 2.57746 12.3356 2.57353C12.1134 2.10514 11.6362 1.78125 11.0833 1.78125H7.91658ZM14.5808 7.24035L14.2948 5.58731C14.0701 4.7642 13.9885 4.50554 13.8506 4.31983C13.6956 4.11105 13.485 3.95013 13.2427 3.85547C13.0687 3.78746 12.8584 3.76745 12.3345 3.76215C12.1118 4.22928 11.6352 4.55208 11.0833 4.55208H7.91658C7.3646 4.55208 6.88801 4.22928 6.66531 3.76215C6.14136 3.76745 5.93111 3.78746 5.7571 3.85547C5.51489 3.95013 5.30422 4.11105 5.14917 4.31982C5.01126 4.50553 4.92972 4.7642 4.70506 5.58731L4.419 7.2404C5.20921 7.125 6.26187 7.125 7.66709 7.125H11.333C12.7381 7.125 13.7906 7.125 14.5808 7.24035ZM6.33343 9.69792C6.66135 9.69792 6.92719 9.96376 6.92719 10.2917V13.4583C6.92719 13.7862 6.66135 14.0521 6.33343 14.0521C6.00552 14.0521 5.73968 13.7862 5.73968 13.4583V10.2917C5.73968 9.96376 6.00552 9.69792 6.33343 9.69792ZM13.2605 10.2917C13.2605 9.96376 12.9947 9.69792 12.6668 9.69792C12.3389 9.69792 12.073 9.96376 12.073 10.2917V13.4583C12.073 13.7862 12.3389 14.0521 12.6668 14.0521C12.9947 14.0521 13.2605 13.7862 13.2605 13.4583V10.2917ZM9.5001 9.69792C9.82801 9.69792 10.0939 9.96376 10.0939 10.2917V13.4583C10.0939 13.7862 9.82801 14.0521 9.5001 14.0521C9.17219 14.0521 8.90635 13.7862 8.90635 13.4583V10.2917C8.90635 9.96376 9.17219 9.69792 9.5001 9.69792Z" fill="#AB9450"/>
</svg>
