<svg width="25" height="25" viewBox="0 0 25 25" fill="none" xmlns="http://www.w3.org/2000/svg">
<g clip-path="url(#clip0_285_361)">
<path d="M9.37492 15.625C8.79962 15.625 8.33325 16.0914 8.33325 16.6667C8.33325 17.242 8.79962 17.7083 9.37492 17.7083C9.95022 17.7083 10.4166 17.242 10.4166 16.6667C10.4166 16.0914 9.95022 15.625 9.37492 15.625Z" fill="white"/>
<path d="M14.5833 16.6667C14.5833 16.0914 15.0496 15.625 15.6249 15.625C16.2002 15.625 16.6666 16.0914 16.6666 16.6667C16.6666 17.242 16.2002 17.7083 15.6249 17.7083C15.0496 17.7083 14.5833 17.242 14.5833 16.6667Z" fill="white"/>
<path fill-rule="evenodd" clip-rule="evenodd" d="M12.5 1.04199C11.3494 1.04199 10.4167 1.97473 10.4167 3.12533C10.4167 3.89645 10.8356 4.56973 11.4583 4.92995V7.29199H6.25C4.52411 7.29199 3.125 8.69111 3.125 10.417V20.8337C3.125 22.5596 4.52411 23.9587 6.25 23.9587H18.75C20.4759 23.9587 21.875 22.5596 21.875 20.8337V10.417C21.875 8.69111 20.4759 7.29199 18.75 7.29199H13.5417V4.92995C14.1644 4.56973 14.5833 3.89645 14.5833 3.12533C14.5833 1.97473 13.6506 1.04199 12.5 1.04199ZM5.20833 10.417C5.20833 9.8417 5.67471 9.37533 6.25 9.37533H7.68955L9.19706 12.3903C9.54996 13.0962 10.2713 13.542 11.0604 13.542H13.9396C14.7286 13.542 15.45 13.0962 15.8029 12.3903L17.3104 9.37533H18.75C19.3253 9.37533 19.7917 9.8417 19.7917 10.417V20.8337C19.7917 21.409 19.3253 21.8753 18.75 21.8753H6.25C5.67471 21.8753 5.20833 21.409 5.20833 20.8337V10.417ZM13.9396 11.4587L14.9812 9.37533H10.0188L11.0604 11.4587H13.9396Z" fill="white"/>
<path d="M1.04167 14.583C0.46637 14.583 0 15.0494 0 15.6247V17.708C0 18.2833 0.46637 18.7497 1.04167 18.7497C1.61696 18.7497 2.08333 18.2833 2.08333 17.708V15.6247C2.08333 15.0494 1.61696 14.583 1.04167 14.583Z" fill="white"/>
<path d="M22.9167 15.6247C22.9167 15.0494 23.3831 14.583 23.9584 14.583C24.5337 14.583 25.0001 15.0494 25.0001 15.6247V17.708C25.0001 18.2833 24.5337 18.7497 23.9584 18.7497C23.3831 18.7497 22.9167 18.2833 22.9167 17.708V15.6247Z" fill="white"/>
</g>
<defs>
<clipPath id="clip0_285_361">
<rect width="25" height="25" fill="white"/>
</clipPath>
</defs>
</svg>
