<svg width="12" height="12" viewBox="0 0 12 12" fill="none" xmlns="http://www.w3.org/2000/svg">
<path fill-rule="evenodd" clip-rule="evenodd" d="M6 10.5C6 10.2239 6.22385 10 6.5 10H10.5C10.7761 10 11 10.2239 11 10.5C11 10.7761 10.7761 11 10.5 11H6.5C6.22385 11 6 10.7761 6 10.5Z" fill="#AB9450"/>
<path fill-rule="evenodd" clip-rule="evenodd" d="M10.3868 4.04997C11.1917 3.2419 11.1575 2.18076 10.5565 1.53091C10.2634 1.21405 9.8463 1.01165 9.37385 1.00049C8.89965 0.989288 8.40835 1.17063 7.955 1.54992C7.9434 1.55962 7.93225 1.56984 7.9216 1.58055L1.43723 8.0908C1.15721 8.3719 1 8.75255 1 9.14935V9.9961C1 10.5468 1.44598 11 2.00191 11H2.84133C3.24019 11 3.62262 10.8411 3.90409 10.5585L10.3868 4.04997ZM8.60355 2.89647C8.4083 2.70121 8.0917 2.70121 7.89645 2.89647C7.7012 3.09174 7.7012 3.40832 7.89645 3.60358L8.39645 4.10358C8.5917 4.29884 8.9083 4.29884 9.10355 4.10358C9.2988 3.90832 9.2988 3.59174 9.10355 3.39647L8.60355 2.89647Z" fill="#AB9450"/>
</svg>
