<svg width="11" height="9" viewBox="0 0 11 9" fill="none" xmlns="http://www.w3.org/2000/svg">
<path fill-rule="evenodd" clip-rule="evenodd" d="M2.88823 6.14016C2.19012 5.54033 1.69149 4.85476 1.45757 4.50065C1.69149 4.14654 2.19012 3.46096 2.88823 2.86117C3.60899 2.24192 4.49894 1.75065 5.50006 1.75065C6.5012 1.75065 7.39119 2.24192 8.11192 2.86117C8.81005 3.46096 9.30867 4.14654 9.54261 4.50065C9.30867 4.85476 8.81005 5.54033 8.11192 6.14016C7.39119 6.75941 6.5012 7.25065 5.50006 7.25065C4.49894 7.25065 3.60899 6.75941 2.88823 6.14016ZM5.50006 0.833984C4.19268 0.833984 3.0971 1.47319 2.29087 2.16588C1.48171 2.86108 0.920197 3.64705 0.671001 4.02848C0.482713 4.31663 0.482713 4.68467 0.671001 4.97283C0.920197 5.35425 1.48171 6.1402 2.29087 6.83545C3.0971 7.52813 4.19268 8.16732 5.50006 8.16732C6.80746 8.16732 7.90306 7.52813 8.70931 6.83545C9.51845 6.1402 10.08 5.35425 10.3292 4.97283C10.5174 4.68467 10.5174 4.31663 10.3292 4.02848C10.08 3.64705 9.51845 2.86108 8.70931 2.16588C7.90306 1.47319 6.80746 0.833984 5.50006 0.833984ZM4.58339 4.50065C4.58339 3.99438 4.99383 3.58398 5.50006 3.58398C6.00634 3.58398 6.41673 3.99438 6.41673 4.50065C6.41673 5.00693 6.00634 5.41732 5.50006 5.41732C4.99383 5.41732 4.58339 5.00693 4.58339 4.50065ZM5.50006 2.66732C4.48756 2.66732 3.66675 3.48813 3.66675 4.50065C3.66675 5.51316 4.48756 6.33398 5.50006 6.33398C6.51261 6.33398 7.33339 5.51316 7.33339 4.50065C7.33339 3.48813 6.51261 2.66732 5.50006 2.66732Z" fill="black"/>
</svg>
