<svg width="26" height="25" viewBox="0 0 26 25" fill="none" xmlns="http://www.w3.org/2000/svg">
<path d="M12.8157 0C5.98891 0 0.456055 5.53286 0.456055 12.3596C0.456055 19.1864 5.98891 24.7192 12.8157 24.7192C19.6424 24.7192 25.1753 19.1864 25.1753 12.3596C25.1753 5.53286 19.6424 0 12.8157 0ZM15.5435 10.2643L15.4035 12.1134H13.5061L13.5061 18.5346L11.1114 18.5346L11.1114 12.1134H9.83198V10.2643H11.1114V9.02348C11.1114 8.47792 11.1259 7.63302 11.5218 7.10678C11.9418 6.55156 12.5163 6.17498 13.5061 6.17498C15.1186 6.17498 15.7945 6.40672 15.7945 6.40672L15.4759 8.29928C15.4759 8.29928 14.9448 8.14479 14.4475 8.14479C13.9502 8.14479 13.5061 8.32342 13.5061 8.82071V10.2643H15.5435Z" fill="#AB9450"/>
</svg>
