<svg width="19" height="20" viewBox="0 0 19 20" fill="none" xmlns="http://www.w3.org/2000/svg">
<path fill-rule="evenodd" clip-rule="evenodd" d="M18.208 17.1257V18.709H14.2497V17.1257H18.208ZM13.458 17.1257V18.709H11.8747V17.1257H13.458ZM18.208 14.7507V16.334H14.2497V14.7507H18.208ZM13.458 14.7507V16.334H11.8747V14.7507H13.458ZM6.14096 11.7761C7.00054 12.6357 8.18804 13.1673 9.49971 13.1673C10.0549 13.1673 10.5878 13.0721 11.0831 12.897L11.0831 14.5511C10.577 14.6814 10.0465 14.7507 9.49971 14.7507C7.75079 14.7507 6.16744 14.0418 5.02133 12.8956L6.14096 11.7761ZM18.208 12.3757V13.959H14.2497V12.3757H18.208ZM13.458 12.3757V13.959H11.8747V12.3757H13.458ZM9.49971 2.08398C12.9975 2.08398 15.833 4.91951 15.833 8.41732C15.833 9.57091 15.5246 10.6525 14.9857 11.584L13.0401 11.5841C13.7923 10.7437 14.2497 9.63393 14.2497 8.41732C14.2497 5.79397 12.1231 3.66732 9.49971 3.66732C6.87636 3.66732 4.74971 5.79397 4.74971 8.41732C4.74971 8.56671 4.75661 8.71448 4.7701 8.86035L5.54138 8.0894L6.66096 9.20898L3.95805 11.9119L1.25513 9.20898L2.37471 8.0894L3.18441 8.89882C3.17246 8.73988 3.16638 8.57931 3.16638 8.41732C3.16638 4.91951 6.00191 2.08398 9.49971 2.08398ZM10.2914 4.45898V7.98982L12.3101 9.34357L11.4393 10.6577L8.70805 8.84482V4.45898H10.2914Z" fill="#676767"/>
</svg>
