<svg width="325" height="340" viewBox="0 0 325 340" fill="none" xmlns="http://www.w3.org/2000/svg">
<path fill-rule="evenodd" clip-rule="evenodd" d="M325 307.62V340H249.116V307.62H325ZM233.939 307.62V340H203.586V307.62H233.939ZM325 259.048V291.429H249.116V259.048H325ZM233.939 259.048V291.429H203.586V259.048H233.939ZM93.6652 198.215C110.144 215.794 132.909 226.666 158.055 226.666C168.699 226.666 178.915 224.719 188.41 221.138V254.966C178.708 257.631 168.538 259.048 158.055 259.048C124.527 259.048 94.1729 244.551 72.201 221.11L93.6652 198.215ZM325 210.477V242.857H249.116V210.477H325ZM233.939 210.477V242.857H203.586V210.477H233.939ZM158.055 0C225.111 0 279.469 57.9897 279.469 129.524C279.469 153.116 273.557 175.236 263.226 194.286L225.927 194.288C240.348 177.101 249.116 154.405 249.116 129.524C249.116 75.8734 208.348 32.3811 158.055 32.3811C107.763 32.3811 66.9939 75.8734 66.9939 129.524C66.9939 132.579 67.1262 135.601 67.3848 138.584L82.1708 122.817L103.634 145.714L51.8171 200.992L0 145.714L21.4632 122.817L36.9858 139.371C36.7567 136.121 36.6402 132.837 36.6402 129.524C36.6402 57.9897 90.9996 0 158.055 0ZM173.232 48.5714V120.781L211.933 148.467L195.239 175.342L142.878 138.267V48.5714H173.232Z" fill="white"/>
</svg>
