<svg width="16" height="17" viewBox="0 0 16 17" fill="none" xmlns="http://www.w3.org/2000/svg">
<path d="M13.8868 5.84066L9.52016 2.34733C8.66683 1.66733 7.3335 1.66066 6.4868 2.34066L2.12014 5.84066C1.49347 6.34066 1.11347 7.34065 1.2468 8.12732L2.0868 13.154C2.28014 14.2807 3.3268 15.1673 4.4668 15.1673H11.5335C12.6602 15.1673 13.7268 14.2606 13.9202 13.1473L14.7602 8.12065C14.8802 7.34065 14.5002 6.34066 13.8868 5.84066ZM8.50016 12.5007C8.50016 12.774 8.2735 13.0007 8.00016 13.0007C7.72683 13.0007 7.50016 12.774 7.50016 12.5007V10.5007C7.50016 10.2273 7.72683 10.0007 8.00016 10.0007C8.2735 10.0007 8.50016 10.2273 8.50016 10.5007V12.5007Z" fill="white"/>
</svg>
