<svg width="25" height="25" viewBox="0 0 25 25" fill="none" xmlns="http://www.w3.org/2000/svg">
<path d="M12.3596 0C5.53286 0 0 5.53286 0 12.3596C0 19.1864 5.53286 24.7192 12.3596 24.7192C19.1864 24.7192 24.7192 19.1864 24.7192 12.3596C24.7192 5.53286 19.1864 0 12.3596 0ZM8.90278 17.5304H6.49362L6.49362 9.8201H8.90278L8.90278 17.5304ZM7.63302 8.8545H7.61371C6.73985 8.8545 6.17498 8.26549 6.17498 7.51715C6.17498 6.75433 6.75916 6.1798 7.64751 6.1798C8.53585 6.1798 9.08142 6.75433 9.10073 7.51715C9.10556 8.26066 8.54068 8.8545 7.63302 8.8545ZM18.5394 17.5304H15.8068L15.8068 13.5425C15.8068 12.4996 15.3819 11.7851 14.4405 11.7851C13.7211 11.7851 13.3204 12.2679 13.1369 12.7314C13.0693 12.8955 13.079 13.1273 13.079 13.3638L13.079 17.5304L10.3705 17.5304C10.3705 17.5304 10.4043 10.4622 10.3705 9.8201H13.079V11.0319C13.2383 10.5008 14.1025 9.74768 15.4833 9.74768C17.1972 9.74768 18.5394 10.8581 18.5394 13.2431V17.5304Z" fill="#AB9450"/>
</svg>
