<svg width="13" height="13" viewBox="0 0 13 13" fill="none" xmlns="http://www.w3.org/2000/svg">
<g clip-path="url(#clip0_316_685)">
<path fill-rule="evenodd" clip-rule="evenodd" d="M6.17615 3.47415C5.53652 3.47415 5.0181 3.99257 5.0181 4.6322C5.0181 5.27183 5.53652 5.79025 6.17615 5.79025C6.81578 5.79025 7.3342 5.27183 7.3342 4.6322C7.3342 3.99257 6.81578 3.47415 6.17615 3.47415ZM6.17615 6.56229C5.11035 6.56229 4.24606 5.69838 4.24606 4.6322C4.24606 3.56602 5.11035 2.70212 6.17615 2.70212C7.24194 2.70212 8.10623 3.56602 8.10623 4.6322C8.10623 5.69838 7.24194 6.56229 6.17615 6.56229ZM6.17615 0C3.61801 0 1.54395 2.07407 1.54395 4.6322C1.54395 6.56923 5.40604 12.3568 6.17615 12.3525C6.93428 12.3568 10.8083 6.54299 10.8083 4.6322C10.8083 2.07407 8.73428 0 6.17615 0Z" fill="#AB9450"/>
</g>
<defs>
<clipPath id="clip0_316_685">
<rect width="12.3525" height="12.3525" fill="white"/>
</clipPath>
</defs>
</svg>
