<svg width="19" height="19" viewBox="0 0 19 19" fill="none" xmlns="http://www.w3.org/2000/svg">
<path d="M6.661 8.57217H11.1276C11.2315 8.57217 11.3345 8.59264 11.4305 8.63243C11.5266 8.67221 11.6139 8.73053 11.6874 8.80404C11.7609 8.87755 11.8192 8.96483 11.859 9.06088C11.8988 9.15693 11.9192 9.25987 11.9192 9.36383C11.9192 9.4678 11.8988 9.57074 11.859 9.66679C11.8192 9.76284 11.7609 9.85011 11.6874 9.92363C11.6139 9.99714 11.5266 10.0555 11.4305 10.0952C11.3345 10.135 11.2315 10.1555 11.1276 10.1555H6.661L7.54925 11.0437C7.69769 11.1923 7.78105 11.3937 7.78097 11.6037C7.7809 11.8137 7.6974 12.0151 7.54885 12.1636C7.4003 12.312 7.19887 12.3954 6.98886 12.3953C6.77886 12.3952 6.57748 12.3117 6.42904 12.1632L4.19021 9.92433C4.11632 9.85097 4.05767 9.76371 4.01765 9.66758C3.97763 9.57145 3.95703 9.46836 3.95703 9.36423C3.95703 9.2601 3.97763 9.15701 4.01765 9.06088C4.05767 8.96475 4.11632 8.87749 4.19021 8.80413L6.42825 6.56529C6.57669 6.41674 6.77807 6.33325 6.98807 6.33317C7.19808 6.3331 7.39951 6.41645 7.54806 6.5649C7.69661 6.71334 7.78011 6.91471 7.78018 7.12472C7.78025 7.33473 7.6969 7.53616 7.54846 7.68471L6.661 8.57217ZM14.2499 2.375C14.4599 2.375 14.6612 2.45841 14.8097 2.60687C14.9582 2.75534 15.0416 2.9567 15.0416 3.16667V15.8333C15.0416 16.0433 14.9582 16.2447 14.8097 16.3931C14.6612 16.5416 14.4599 16.625 14.2499 16.625C14.04 16.625 13.8386 16.5416 13.6901 16.3931C13.5417 16.2447 13.4582 16.0433 13.4582 15.8333V3.16667C13.4582 2.9567 13.5417 2.75534 13.6901 2.60687C13.8386 2.45841 14.04 2.375 14.2499 2.375Z" fill="#676767"/>
</svg>
