<svg width="26" height="25" viewBox="0 0 26 25" fill="none" xmlns="http://www.w3.org/2000/svg">
<path d="M13.2695 0C6.44522 0 0.913086 5.53214 0.913086 12.3564C0.913086 19.1806 6.44522 24.7128 13.2695 24.7128C20.0937 24.7128 25.6259 19.1806 25.6259 12.3564C25.6259 5.53214 20.0937 0 13.2695 0ZM13.5072 10.4928C13.5113 10.493 13.5152 10.4939 13.5193 10.494C13.4771 10.313 13.4552 10.1241 13.4552 9.93019C13.4552 8.56389 14.563 7.45611 15.9295 7.45611C16.641 7.45611 17.284 7.75658 17.7353 8.23746C18.1987 8.14624 18.6372 7.98773 19.0448 7.77782C19.1307 7.73611 19.2169 7.69465 19.3016 7.64875C19.1549 8.09927 18.8795 8.48918 18.5225 8.78457C18.4258 8.86064 18.3264 8.9341 18.2171 8.99424C18.2246 8.99337 18.2318 8.99173 18.2392 8.99082C18.232 8.99531 18.2259 9.00144 18.2185 9.00588C18.6241 8.95737 19.013 8.85861 19.3823 8.71907C19.4651 8.6905 19.5478 8.66159 19.6298 8.62968C19.2995 9.12003 18.8839 9.55134 18.405 9.89713C18.4097 10.0032 18.4121 10.1098 18.4121 10.2172C18.4121 13.4866 15.9236 17.2566 11.3727 17.2566C9.97548 17.2566 8.67497 16.8471 7.58003 16.1451C7.77358 16.1679 7.97061 16.1796 8.17029 16.1796C9.09393 16.1796 9.95685 15.9253 10.6987 15.4874C10.8855 15.3798 11.0683 15.2635 11.2428 15.1319C11.2381 15.1318 11.2338 15.1307 11.229 15.1306C11.2336 15.1271 11.2385 15.124 11.243 15.1205C10.3055 15.1032 9.49648 14.5635 9.09152 13.7812C9.03118 13.6611 8.97954 13.5353 8.9388 13.4033C9.08775 13.4312 9.24028 13.4466 9.39734 13.4466C9.56101 13.4466 9.71909 13.4256 9.87378 13.3953C9.93156 13.3872 9.98991 13.3804 10.0469 13.3711C10.0393 13.3695 10.0327 13.3662 10.0252 13.3646C10.033 13.3626 10.0414 13.3619 10.0491 13.3598C8.91732 13.1325 8.06444 12.1325 8.06444 10.9338C8.06444 10.9243 8.06454 10.9151 8.06464 10.9058L8.06579 10.9032C8.33228 11.0511 8.63018 11.1489 8.9457 11.1899C9.02337 11.2029 9.10117 11.2148 9.17893 11.2216C9.17362 11.218 9.16904 11.2137 9.16377 11.2101C9.17111 11.2104 9.17811 11.2118 9.18535 11.2121C8.52148 10.7684 8.08471 10.011 8.08471 9.15271C8.08471 8.75971 8.18067 8.39071 8.34376 8.06076C8.36978 8.01114 8.3929 7.96046 8.42278 7.91238C9.51897 9.25527 11.1024 10.1795 12.902 10.4295C13.1028 10.4587 13.3042 10.4847 13.5079 10.4965C13.5076 10.4954 13.5075 10.494 13.5072 10.4928Z" fill="#AB9450"/>
</svg>
