<svg width="19" height="19" viewBox="0 0 19 19" fill="none" xmlns="http://www.w3.org/2000/svg">
<path fill-rule="evenodd" clip-rule="evenodd" d="M7.91609 1.78125C7.36319 1.78125 6.88593 2.10514 6.6637 2.57353C6.12257 2.57746 5.70082 2.6023 5.32434 2.74944C4.87452 2.92525 4.48327 3.2241 4.19533 3.61182C3.90484 4.00298 3.76848 4.50433 3.5808 5.19439L3.54407 5.32925L3.13816 7.67499C2.99128 7.77632 2.86371 7.89631 2.75277 8.03842C2.03961 8.95177 2.37921 10.3102 3.05842 13.027C3.49041 14.755 3.70641 15.6189 4.35065 16.122C4.9949 16.625 5.88546 16.625 7.6666 16.625H11.3326C13.1137 16.625 14.0043 16.625 14.6485 16.122C15.2927 15.6189 15.5088 14.755 15.9408 13.027C16.6199 10.3102 16.9596 8.95177 16.2464 8.03842C16.1354 7.89619 16.0077 7.77612 15.8607 7.67475L15.4548 5.32925L15.418 5.19439C15.2303 4.50433 15.094 4.00298 14.8035 3.61182C14.5156 3.2241 14.1243 2.92525 13.6745 2.74944C13.298 2.6023 12.8763 2.57746 12.3351 2.57353C12.1129 2.10514 11.6357 1.78125 11.0828 1.78125H7.91609ZM14.5803 7.24035L14.2943 5.58731C14.0696 4.7642 13.988 4.50554 13.8501 4.31983C13.6951 4.11105 13.4845 3.95013 13.2422 3.85547C13.0682 3.78746 12.8579 3.76745 12.334 3.76215C12.1113 4.22928 11.6347 4.55208 11.0828 4.55208H7.91609C7.36411 4.55208 6.88753 4.22928 6.66482 3.76215C6.14087 3.76745 5.93062 3.78746 5.75661 3.85547C5.5144 3.95013 5.30373 4.11105 5.14868 4.31982C5.01077 4.50553 4.92923 4.7642 4.70457 5.58731L4.41851 7.2404C5.20872 7.125 6.26138 7.125 7.6666 7.125H11.3326C12.7376 7.125 13.7901 7.125 14.5803 7.24035ZM6.33295 9.69792C6.66086 9.69792 6.9267 9.96376 6.9267 10.2917V13.4583C6.9267 13.7862 6.66086 14.0521 6.33295 14.0521C6.00503 14.0521 5.7392 13.7862 5.7392 13.4583V10.2917C5.7392 9.96376 6.00503 9.69792 6.33295 9.69792ZM13.26 10.2917C13.26 9.96376 12.9942 9.69792 12.6663 9.69792C12.3384 9.69792 12.0725 9.96376 12.0725 10.2917V13.4583C12.0725 13.7862 12.3384 14.0521 12.6663 14.0521C12.9942 14.0521 13.26 13.7862 13.26 13.4583V10.2917ZM9.49961 9.69792C9.82752 9.69792 10.0934 9.96376 10.0934 10.2917V13.4583C10.0934 13.7862 9.82752 14.0521 9.49961 14.0521C9.1717 14.0521 8.90586 13.7862 8.90586 13.4583V10.2917C8.90586 9.96376 9.1717 9.69792 9.49961 9.69792Z" fill="white"/>
</svg>
