<svg width="16" height="17" viewBox="0 0 16 17" fill="none" xmlns="http://www.w3.org/2000/svg">
<g clip-path="url(#clip0_100_182)">
<path fill-rule="evenodd" clip-rule="evenodd" d="M15.7123 14.677C15.2185 16.1778 13.2835 16.9263 11.9011 16.8015C10.0131 16.6308 7.95872 15.6294 6.39925 14.5265C4.10699 12.9051 1.95978 10.3972 0.708582 7.73584C-0.175685 5.8553 -0.374082 3.5432 0.941118 1.82907C1.42752 1.19547 1.95338 0.857074 2.74378 0.817608C3.84032 0.764274 3.99392 1.39158 4.37045 2.36865C4.65098 3.09932 5.02538 3.84465 5.23445 4.60198C5.62592 6.01532 4.25738 6.07439 4.08458 7.22959C3.97685 7.95812 4.86005 8.93512 5.25899 9.45459C6.04085 10.4722 6.98058 11.3499 8.04085 12.0176C8.64778 12.4005 9.62805 13.0906 10.3235 12.7098C11.3944 12.1231 11.2931 10.3173 12.7907 10.9285C13.5662 11.2443 14.3171 11.6999 15.0574 12.0989C16.2019 12.7143 16.1486 13.3522 15.7123 14.677C16.0387 13.6871 15.3859 15.6668 15.7123 14.677Z" fill="#676767"/>
</g>
<defs>
<clipPath id="clip0_100_182">
<rect width="16" height="16" fill="white" transform="translate(0 0.814453)"/>
</clipPath>
</defs>
</svg>
