<svg width="27" height="28" viewBox="0 0 27 28" fill="none" xmlns="http://www.w3.org/2000/svg">
<g clip-path="url(#clip0_100_167)">
<path d="M13.5002 1.44971C6.396 1.44971 0.583496 7.24929 0.583496 14.3922C0.583496 20.8506 5.311 26.211 11.4852 27.1797V18.1381H8.20433V14.3922H11.4852V11.5376C11.4852 8.29554 13.4097 6.51304 16.3677 6.51304C17.7756 6.51304 19.2481 6.75846 19.2481 6.75846V9.94887H17.6206C16.0189 9.94887 15.5152 10.9435 15.5152 11.9639V14.3922H19.106L18.5247 18.1381H15.5152V27.1797C18.5588 26.699 21.3305 25.146 23.3296 22.801C25.3287 20.4561 26.4238 17.4736 26.4168 14.3922C26.4168 7.24929 20.6043 1.44971 13.5002 1.44971Z" fill="#676767"/>
</g>
<defs>
<clipPath id="clip0_100_167">
<rect width="27" height="27" fill="white" transform="translate(0 0.814453)"/>
</clipPath>
</defs>
</svg>
