<svg width="26" height="27" viewBox="0 0 26 27" fill="none" xmlns="http://www.w3.org/2000/svg">
<g clip-path="url(#clip0_100_169)">
<path d="M13.8801 0.84082C20.4768 0.84082 25.8742 6.23817 25.8742 12.8349V14.7089C25.8742 21.3057 20.4768 26.703 13.8801 26.703H12.0061C5.40931 26.703 0.0119629 21.3057 0.0119629 14.7089V12.8349C0.0119629 6.23817 5.40931 0.84082 12.0061 0.84082H13.8801ZM13.1788 7.34103L13.012 7.34082C11.6224 7.34082 10.2328 7.38675 10.2328 7.38675C8.20322 7.38675 6.55789 9.03208 6.55789 11.0617C6.55789 11.0617 6.51571 12.2549 6.51219 13.5356L6.51196 13.703C6.51196 15.137 6.55789 16.62 6.55789 16.62C6.55789 18.6496 8.20322 20.2949 10.2328 20.2949C10.2328 20.2949 11.532 20.3408 12.8742 20.3408C14.3081 20.3408 15.8371 20.2949 15.8371 20.2949C17.8667 20.2949 19.466 18.6955 19.466 16.6659C19.466 16.6659 19.512 15.1996 19.512 13.7949L19.5111 13.4652C19.5049 12.2049 19.466 11.0157 19.466 11.0157C19.466 8.98612 17.8666 7.38675 15.837 7.38675C15.837 7.38675 14.5141 7.34442 13.1788 7.34103ZM13.012 8.51079C14.1514 8.51079 15.6124 8.54847 15.6124 8.54847C17.2767 8.54847 18.3043 9.57604 18.3043 11.2403C18.3043 11.2403 18.342 12.6764 18.342 13.8031C18.342 14.955 18.3043 16.4412 18.3043 16.4412C18.3043 18.1055 17.2767 19.1331 15.6124 19.1331C15.6124 19.1331 14.3204 19.1647 13.1994 19.17L12.899 19.1708C11.7984 19.1708 10.4574 19.1331 10.4574 19.1331C8.79318 19.1331 7.71965 18.0595 7.71965 16.3953C7.71965 16.3953 7.68196 14.9036 7.68196 13.7278C7.68196 12.6272 7.71965 11.2403 7.71965 11.2403C7.71965 9.57604 8.7932 8.54847 10.4574 8.54847C10.4574 8.54847 11.8725 8.51079 13.012 8.51079ZM13.0119 10.5111C11.173 10.5111 9.68227 12.0019 9.68227 13.8408C9.68227 15.6797 11.173 17.1704 13.0119 17.1704C14.8509 17.1704 16.3416 15.6797 16.3416 13.8408C16.3416 12.0019 14.8509 10.5111 13.0119 10.5111ZM13.0119 11.6741C14.2086 11.6741 15.1786 12.6441 15.1786 13.8408C15.1786 15.0374 14.2086 16.0074 13.0119 16.0074C11.8153 16.0074 10.8453 15.0374 10.8453 13.8408C10.8453 12.6441 11.8153 11.6741 13.0119 11.6741ZM16.5009 9.58712C16.0566 9.58712 15.6964 9.94912 15.6964 10.3956C15.6964 10.8422 16.0566 11.2041 16.5009 11.2041C16.9452 11.2041 17.3054 10.8422 17.3054 10.3956C17.3054 9.94909 16.9452 9.58712 16.5009 9.58712Z" fill="#676767"/>
</g>
<defs>
<clipPath id="clip0_100_169">
<rect width="26" height="26" fill="white" transform="translate(0 0.814453)"/>
</clipPath>
</defs>
</svg>
