<svg width="26" height="27" viewBox="0 0 26 27" fill="none" xmlns="http://www.w3.org/2000/svg">
<g clip-path="url(#clip0_100_173)">
<path d="M13 0.814453C5.81953 0.814453 0 6.63398 0 13.8145C0 20.9949 5.81953 26.8145 13 26.8145C20.1805 26.8145 26 20.9949 26 13.8145C26 6.63398 20.1805 0.814453 13 0.814453ZM9.36406 19.2531H6.83008V11.1434H9.36406V19.2531ZM8.02852 10.1277H8.0082C7.08906 10.1277 6.49492 9.5082 6.49492 8.72109C6.49492 7.91875 7.10937 7.31445 8.04375 7.31445C8.97812 7.31445 9.55195 7.91875 9.57227 8.72109C9.57734 9.50313 8.9832 10.1277 8.02852 10.1277ZM19.5 19.2531H16.6258V15.0586C16.6258 13.9617 16.1789 13.2102 15.1887 13.2102C14.432 13.2102 14.0105 13.718 13.8176 14.2055C13.7465 14.3781 13.7566 14.6219 13.7566 14.8707V19.2531H10.9078C10.9078 19.2531 10.9434 11.8187 10.9078 11.1434H13.7566V12.418C13.9242 11.8594 14.8332 11.0672 16.2855 11.0672C18.0883 11.0672 19.5 12.2352 19.5 14.7437V19.2531Z" fill="#676767"/>
</g>
<defs>
<clipPath id="clip0_100_173">
<rect width="26" height="26" fill="white" transform="translate(0 0.814453)"/>
</clipPath>
</defs>
</svg>
