<svg width="16" height="17" viewBox="0 0 16 17" fill="none" xmlns="http://www.w3.org/2000/svg">
<g clip-path="url(#clip0_100_190)">
<path fill-rule="evenodd" clip-rule="evenodd" d="M8 5.31445C7.1715 5.31445 6.5 5.98595 6.5 6.81445C6.5 7.64295 7.1715 8.31445 8 8.31445C8.8285 8.31445 9.5 7.64295 9.5 6.81445C9.5 5.98595 8.8285 5.31445 8 5.31445ZM8 9.31445C6.6195 9.31445 5.5 8.19545 5.5 6.81445C5.5 5.43345 6.6195 4.31445 8 4.31445C9.3805 4.31445 10.5 5.43345 10.5 6.81445C10.5 8.19545 9.3805 9.31445 8 9.31445ZM8 0.814453C4.6865 0.814453 2 3.50095 2 6.81445C2 9.32345 7.0025 16.82 8 16.8145C8.982 16.82 14 9.28945 14 6.81445C14 3.50095 11.3135 0.814453 8 0.814453Z" fill="#676767"/>
</g>
<defs>
<clipPath id="clip0_100_190">
<rect width="16" height="16" fill="white" transform="translate(0 0.814453)"/>
</clipPath>
</defs>
</svg>
