<svg width="26" height="27" viewBox="0 0 26 27" fill="none" xmlns="http://www.w3.org/2000/svg">
<g clip-path="url(#clip0_100_175)">
<path d="M13 0.814453C5.81953 0.814453 0 6.63398 0 13.8145C0 20.9949 5.81953 26.8145 13 26.8145C20.1805 26.8145 26 20.9949 26 13.8145C26 6.63398 20.1805 0.814453 13 0.814453ZM18.1898 11.7934C18.1949 11.9051 18.1949 12.0219 18.1949 12.1387C18.1949 15.668 15.5086 19.7406 10.593 19.7406C9.08477 19.7406 7.67812 19.2988 6.5 18.5422C6.7082 18.5676 6.92148 18.5777 7.13984 18.5777C8.38906 18.5777 9.5418 18.1512 10.4559 17.4352C9.28789 17.4148 8.29766 16.643 7.9625 15.5816C8.125 15.6121 8.29258 15.6273 8.46523 15.6273C8.70898 15.6273 8.94766 15.5969 9.17109 15.5309C7.94727 15.2871 7.02812 14.2055 7.02812 12.9105V12.8801C7.38867 13.0781 7.8 13.2 8.23672 13.2152C7.5207 12.7379 7.04844 11.9152 7.04844 10.991C7.04844 10.5035 7.18047 10.0414 7.40898 9.64531C8.7293 11.2652 10.6945 12.3266 12.9137 12.4383C12.868 12.2453 12.8426 12.0422 12.8426 11.8289C12.8426 10.3562 14.041 9.15781 15.5137 9.15781C16.2805 9.15781 16.9762 9.48281 17.4637 10.0008C18.073 9.87891 18.6418 9.66055 19.1598 9.35078C18.9617 9.97539 18.5352 10.4984 17.9867 10.8285C18.525 10.7625 19.043 10.6203 19.5203 10.407C19.1648 10.9453 18.7129 11.4125 18.1898 11.7934Z" fill="#676767"/>
</g>
<defs>
<clipPath id="clip0_100_175">
<rect width="26" height="26" fill="white" transform="translate(0 0.814453)"/>
</clipPath>
</defs>
</svg>
