<svg width="363" height="113" viewBox="0 0 363 113" fill="none" xmlns="http://www.w3.org/2000/svg">
<path d="M43.8677 112.091C37.3953 112.091 33.6611 110.398 32.6654 107.013L5.18217 16.6468C4.78386 15.3523 4.23619 13.8586 3.53915 12.1658C2.84212 10.473 1.89614 9.02917 0.701217 7.83425C1.59741 6.83848 2.89191 5.94229 4.58471 5.14568C6.27752 4.34906 8.51799 3.95075 11.3061 3.95075C17.6791 3.95075 21.463 6.24102 22.6579 10.8216L48.7968 108.954H43.569L67.6168 16.3481C67.9155 15.3523 68.1645 14.3565 68.3636 13.3608C68.5628 12.2654 68.6624 11.2199 68.6624 10.2241C68.6624 9.12875 68.5628 8.23256 68.3636 7.53552C68.1645 6.83848 67.816 6.24102 67.3181 5.74314C68.6126 5.24526 69.9569 4.84695 71.3509 4.54822C72.8446 4.14991 74.6867 3.95075 76.8774 3.95075C80.3626 3.95075 82.9018 4.54822 84.4951 5.74314C86.0883 6.93806 86.8849 8.83001 86.8849 11.419C86.8849 12.5144 86.6857 13.9084 86.2874 15.6012C85.9887 17.1945 85.5406 18.8873 84.9431 20.6796L55.6676 109.552C53.2777 110.448 51.0373 111.095 48.9462 111.494C46.9546 111.892 45.2618 112.091 43.8677 112.091ZM109.527 22.472C106.639 22.472 104.149 21.4763 102.058 19.4847C100.067 17.4932 99.071 15.1033 99.071 12.3152C99.071 9.3279 100.067 6.83848 102.058 4.84694C104.149 2.85541 106.639 1.85964 109.527 1.85964C112.315 1.85964 114.705 2.85541 116.696 4.84694C118.787 6.83848 119.833 9.3279 119.833 12.3152C119.833 15.1033 118.787 17.4932 116.696 19.4847C114.705 21.4763 112.315 22.472 109.527 22.472ZM118.937 89.8357C118.937 92.7234 119.086 95.7605 119.385 98.947C119.683 102.133 120.38 105.171 121.476 108.058C120.679 108.755 119.385 109.602 117.592 110.597C115.899 111.593 113.858 112.091 111.468 112.091C108.68 112.091 106.34 111.294 104.448 109.701C102.556 108.008 101.61 105.718 101.61 102.83V53.2412C101.61 50.3535 101.411 47.3164 101.013 44.13C100.714 40.9435 100.017 37.9064 98.9216 35.0187C99.7182 34.3217 100.963 33.5251 102.656 32.6289C104.349 31.6331 106.39 31.1352 108.78 31.1352C111.667 31.1352 114.008 31.9318 115.8 33.5251C117.692 35.1183 118.638 37.3588 118.638 40.2465L118.937 89.8357ZM166.069 112.091C163.978 112.091 162.037 111.643 160.244 110.747C158.551 109.851 157.356 108.307 156.659 106.117L135.45 44.4287C135.151 43.3334 134.653 41.8895 133.956 40.0971C133.259 38.3047 132.313 36.8609 131.118 35.7655C132.014 34.7698 133.209 33.8736 134.703 33.077C136.296 32.1808 138.437 31.7327 141.125 31.7327C143.814 31.7327 146.054 32.3301 147.847 33.5251C149.739 34.6204 150.934 36.3132 151.432 38.6035L170.102 105.071L168.011 104.922L184.591 44.13C184.79 43.0346 184.939 41.9891 185.039 40.9933C185.238 39.9975 185.338 39.0018 185.338 38.006C185.338 36.9107 185.238 36.0145 185.039 35.3174C184.939 34.6204 184.69 34.0229 184.292 33.5251C185.487 33.0272 186.732 32.6289 188.026 32.3301C189.42 31.9318 191.163 31.7327 193.254 31.7327C196.639 31.7327 199.079 32.3301 200.573 33.5251C202.166 34.6204 202.913 36.5124 202.813 39.2009C202.813 40.3958 202.664 41.8397 202.365 43.5325C202.166 45.1257 201.718 46.7688 201.021 48.4616L177.869 109.403C173.787 111.195 169.853 112.091 166.069 112.091ZM247.609 112.091C236.357 112.091 227.395 108.606 220.723 101.636C214.051 94.5656 210.716 84.5581 210.716 71.6132C210.716 59.1661 213.902 49.3578 220.275 42.1882C226.648 34.9191 235.859 31.2846 247.908 31.2846C253.583 31.2846 258.612 32.131 262.993 33.8238C267.474 35.417 271.009 37.8566 273.598 41.1427C276.187 44.4287 277.482 48.5611 277.482 53.54C277.482 60.9087 274.445 66.5347 268.371 70.4182C262.396 74.3017 254.529 76.2435 244.771 76.2435C240.688 76.2435 236.506 76.1439 232.224 75.9447C227.942 75.646 223.412 74.8992 218.632 73.7043L219.08 68.0284C221.37 68.3271 223.81 68.6259 226.399 68.9246C229.088 69.2233 232.025 69.4225 235.211 69.522C237.9 69.522 240.638 69.3229 243.427 68.9246C246.215 68.5263 248.754 67.6799 251.044 66.3854C253.334 65.0909 255.177 63.1989 256.571 60.7095C257.965 58.2201 258.662 54.8843 258.662 50.702C258.662 47.1173 258.114 44.4287 257.019 42.6363C255.923 40.7444 254.48 39.4499 252.687 38.7528C250.994 37.9562 249.202 37.5579 247.31 37.5579C241.734 37.5579 237.352 40.3461 234.166 45.9224C230.979 51.3991 229.386 59.2159 229.386 69.3727C229.386 77.2392 230.282 83.5126 232.075 88.1927C233.967 92.7732 236.655 96.0593 240.141 98.0508C243.626 99.9427 247.708 100.889 252.388 100.889C257.865 100.889 262.446 99.7934 266.13 97.6027C269.914 95.412 272.603 92.5741 274.196 89.0889C275.192 89.4872 275.889 90.2838 276.287 91.4787C276.785 92.6736 276.486 94.6154 275.391 97.304C273.499 102.084 270.063 105.768 265.085 108.357C260.205 110.846 254.38 112.091 247.609 112.091ZM303.245 112.091C299.262 112.091 296.623 111.095 295.329 109.104C294.134 107.112 293.536 104.722 293.536 101.934V9.92536C293.437 6.93806 294.333 4.64779 296.225 3.05457C298.216 1.46133 300.656 0.664719 303.544 0.664719C306.033 0.664719 308.124 1.1626 309.817 2.15837C311.51 3.05456 312.705 3.85118 313.402 4.54822C312.705 8.23256 312.207 11.4688 311.908 14.2569C311.609 16.9455 311.36 19.4847 311.161 21.8746C311.062 24.1648 311.012 26.5049 311.012 28.8947C311.012 31.185 310.912 33.774 310.713 36.6617L310.564 55.3324L309.668 53.6893C310.962 49.2084 312.904 45.3249 315.493 42.0389C318.082 38.6533 321.268 36.0145 325.052 34.1225C328.836 32.2306 333.168 31.2846 338.047 31.2846C344.719 31.2846 349.548 32.9276 352.535 36.2136C355.523 39.4001 357.016 43.3334 357.016 48.0135C357.016 52.0961 355.971 55.7805 353.88 59.0665C351.789 62.2529 349.15 65.0909 345.963 67.5803C342.777 69.9701 339.342 72.0613 335.657 73.8536C337.35 74.2519 338.794 75.1481 339.989 76.5422C341.184 77.9363 342.379 79.6291 343.574 81.6206L349.249 91.3294C350.444 93.4205 351.44 94.9639 352.237 95.9597C353.033 96.8559 354.178 97.304 355.672 97.304C356.17 97.304 356.817 97.2044 357.614 97.0052C358.41 96.8061 359.157 96.4078 359.854 95.8103C360.651 96.7065 361.199 97.6525 361.497 98.6482C361.896 99.644 362.095 100.64 362.095 101.636C362.095 104.523 360.8 107.013 358.211 109.104C355.722 111.095 352.685 112.091 349.1 112.091C346.013 112.091 343.175 111.195 340.586 109.403C337.997 107.61 335.956 104.872 334.462 101.187L324.007 77.7371C321.617 78.4342 319.327 79.0814 317.136 79.6789C314.945 80.2763 312.854 80.7742 310.863 81.1725C310.863 85.2552 310.863 88.6906 310.863 91.4787C310.962 94.2669 311.062 96.6069 311.161 98.4989C311.36 100.291 311.659 101.934 312.057 103.428C312.555 104.922 313.153 106.515 313.85 108.208C312.755 109.104 311.41 109.95 309.817 110.747C308.224 111.643 306.033 112.091 303.245 112.091ZM310.863 74.4511C314.149 73.5549 317.484 72.36 320.87 70.8663C324.256 69.2731 327.293 67.4309 329.981 65.3398C332.769 63.2487 335.01 60.8589 336.703 58.1703C338.396 55.4817 339.242 52.4446 339.242 49.059C339.242 45.8726 338.495 43.6321 337.001 42.3376C335.508 40.9435 333.666 40.2465 331.475 40.2465C327.492 40.2465 323.957 41.7899 320.87 44.8768C317.783 47.8641 315.344 51.9468 313.551 57.1247C311.759 62.3027 310.863 68.0782 310.863 74.4511Z" fill="#AB9450"/>
</svg>
