<svg width="22" height="22" viewBox="0 0 22 22" fill="none" xmlns="http://www.w3.org/2000/svg">
<g clip-path="url(#clip0_51_764)">
<path d="M11 13.75C12.5188 13.75 13.75 12.5188 13.75 11C13.75 9.48122 12.5188 8.25 11 8.25C9.48122 8.25 8.25 9.48122 8.25 11C8.25 12.5188 9.48122 13.75 11 13.75Z" fill="#AB9450"/>
<path fill-rule="evenodd" clip-rule="evenodd" d="M2.86407 9.625C3.44366 6.1703 6.1703 3.44366 9.625 2.86407V0H12.375V2.86407C15.8297 3.44366 18.5563 6.1703 19.1359 9.625H22V12.375H19.1359C18.5563 15.8297 15.8297 18.5563 12.375 19.1359V22H9.625V19.1359C6.1703 18.5563 3.44366 15.8297 2.86407 12.375H0V9.625H2.86407ZM5.5 11C5.5 7.96243 7.96243 5.5 11 5.5C14.0375 5.5 16.5 7.96243 16.5 11C16.5 14.0375 14.0375 16.5 11 16.5C7.96243 16.5 5.5 14.0375 5.5 11Z" fill="#AB9450"/>
</g>
<defs>
<clipPath id="clip0_51_764">
<rect width="22" height="22" fill="white"/>
</clipPath>
</defs>
</svg>
