<svg width="17" height="29" viewBox="0 0 17 29" fill="none" xmlns="http://www.w3.org/2000/svg">
<path d="M12.5708 9.04178L10.4948 6.96575L9.2272 5.69166C8.6904 5.15486 7.81731 5.15486 7.28051 5.69166L3.93038 9.04178C3.4906 9.48156 3.8075 10.2318 4.4219 10.2318H8.05013H12.0793C12.7002 10.2318 13.0106 9.48156 12.5708 9.04178Z" fill="#AB9450"/>
<path d="M3.92916 19.5168L6.00519 21.5928L7.2728 22.8669C7.8096 23.4037 8.68269 23.4037 9.21949 22.8669L12.5696 19.5168C13.0094 19.077 12.6925 18.3268 12.0781 18.3268L8.44987 18.3268L4.42068 18.3268C3.79981 18.3268 3.48938 19.077 3.92916 19.5168Z" fill="#AB9450"/>
</svg>
