<svg width="23" height="23" viewBox="0 0 23 23" fill="none" xmlns="http://www.w3.org/2000/svg">
<g clip-path="url(#clip0_199_198)">
<path fill-rule="evenodd" clip-rule="evenodd" d="M22.5865 19.9274C21.8765 22.0848 19.0951 23.1607 17.1079 22.9813C14.3939 22.736 11.4407 21.2965 9.19892 19.711C5.90379 17.3803 2.81719 13.7752 1.01859 9.94949C-0.252547 7.24622 -0.537743 3.92257 1.35286 1.45851C2.05206 0.547706 2.80799 0.0612679 3.94419 0.00453457C5.52045 -0.0721321 5.74126 0.829624 6.28252 2.23416C6.68579 3.28449 7.22399 4.35591 7.52452 5.44457C8.08725 7.47624 6.11999 7.56115 5.87159 9.22175C5.71672 10.269 6.98632 11.6735 7.55979 12.4202C8.68372 13.883 10.0346 15.1447 11.5587 16.1045C12.4312 16.655 13.8403 17.647 14.8401 17.0996C16.3795 16.2562 16.2339 13.6604 18.3867 14.539C19.5014 14.9929 20.5809 15.6479 21.645 16.2213C23.2903 17.1061 23.2136 18.023 22.5865 19.9274C23.0557 18.5045 22.1173 21.3503 22.5865 19.9274Z" fill="white"/>
</g>
<defs>
<clipPath id="clip0_199_198">
<rect width="23" height="23" fill="white"/>
</clipPath>
</defs>
</svg>
