<svg width="23" height="23" viewBox="0 0 23 23" fill="none" xmlns="http://www.w3.org/2000/svg">
<g clip-path="url(#clip0_199_204)">
<path d="M23 7.87194L21.3646 8.10176C19.9334 3.7168 15.8173 0.546617 10.9544 0.545898C4.90372 0.546617 0.000359375 5.44966 0 11.5C0.000359375 17.5506 4.90372 22.454 10.9544 22.4544C11.2766 22.4544 11.5972 22.4406 11.9146 22.4128L11.6939 19.8719H11.6935C11.4509 19.8927 11.2047 19.9033 10.9544 19.9033C8.62949 19.9026 6.53735 18.965 5.01207 17.4423C3.4894 15.917 2.55143 13.8245 2.55111 11.5C2.55147 9.17539 3.4894 7.08284 5.01207 5.55797C6.53735 4.03525 8.62949 3.09773 10.9544 3.09697C13.279 3.09773 15.3715 4.03525 16.8964 5.55797C17.7157 6.37842 18.3578 7.36742 18.7835 8.46441L17.3863 8.66099L20.991 13.9281L21.7965 11.5H21.9081C21.9081 11.4014 21.8964 11.3059 21.8935 11.2077L23 7.87194Z" fill="white"/>
<path d="M17.9224 16.1978C17.7852 16.4013 17.6379 16.5994 17.4824 16.7924L19.4655 18.3965C19.6662 18.1484 19.8569 17.8919 20.0369 17.6252L17.9231 16.1978H17.9224Z" fill="white"/>
<path d="M14.2964 19.2124C13.8886 19.3893 13.4636 19.5345 13.0254 19.6458L13.6514 22.1192C14.2245 21.974 14.7794 21.7836 15.312 21.5523L14.2964 19.2128V19.2124Z" fill="white"/>
<path d="M15.4824 18.5791L16.86 20.7268C17.3539 20.4105 17.8201 20.0552 18.255 19.6659L16.5542 17.7649C16.2197 18.0637 15.8618 18.3366 15.4824 18.5791Z" fill="white"/>
<path d="M9.69642 11.3362C10.1006 10.8758 10.3454 10.3975 10.3454 9.7868C10.3454 8.75261 9.60338 7.96387 8.38236 7.96387C7.15114 7.96387 6.43684 8.73401 6.37117 9.61717C6.36133 9.67373 6.39053 9.72081 6.44668 9.73029L7.47943 9.89879C7.54583 9.90827 7.58271 9.88019 7.58271 9.82368C7.63886 9.33515 7.903 9.07213 8.33457 9.07213C8.77633 9.07213 9.02987 9.38264 9.02987 9.80504C9.02987 10.1334 8.8982 10.4059 8.6545 10.6886L6.40912 13.3561C6.37117 13.4031 6.36133 13.4309 6.36133 13.4874V14.3611C6.36133 14.4177 6.39924 14.4549 6.45544 14.4549H10.2512C10.3074 14.4549 10.3454 14.4177 10.3454 14.3611V13.4309C10.3454 13.3751 10.3074 13.3375 10.2512 13.3375H8.01535V13.3185L9.69642 11.3362Z" fill="white"/>
<path d="M15.9475 13.5247C16.0029 13.5247 16.0405 13.4872 16.0405 13.4306V12.4825C16.0405 12.4259 16.0029 12.388 15.9475 12.388H15.5247L15.4681 12.3314V10.951C15.4681 10.8948 15.4305 10.8569 15.374 10.8569H14.2847C14.2281 10.8569 14.1902 10.8948 14.1902 10.951V12.3314L14.134 12.388H12.9604V12.3599L14.8757 8.16092C14.8946 8.10437 14.8757 8.06641 14.8107 8.06641H13.6167C13.5514 8.06641 13.5138 8.08536 13.4861 8.14197L11.5694 12.3599L11.5508 12.4729V13.4306C11.5508 13.4871 11.5883 13.5247 11.6449 13.5247H14.134L14.1902 13.5812V14.3608C14.1902 14.4174 14.2281 14.4546 14.2847 14.4546H15.374C15.4305 14.4546 15.4681 14.4174 15.4681 14.3608V13.5812L15.5247 13.5247H15.9475Z" fill="white"/>
</g>
<defs>
<clipPath id="clip0_199_204">
<rect width="23" height="23" fill="white"/>
</clipPath>
</defs>
</svg>
