<svg width="23" height="23" viewBox="0 0 23 23" fill="none" xmlns="http://www.w3.org/2000/svg">
<g clip-path="url(#clip0_197_156)">
<path fill-rule="evenodd" clip-rule="evenodd" d="M11.5 6.46875C10.309 6.46875 9.34375 7.43403 9.34375 8.625C9.34375 9.81597 10.309 10.7812 11.5 10.7812C12.691 10.7812 13.6562 9.81597 13.6562 8.625C13.6562 7.43403 12.691 6.46875 11.5 6.46875ZM11.5 12.2188C9.51553 12.2188 7.90625 10.6102 7.90625 8.625C7.90625 6.63981 9.51553 5.03125 11.5 5.03125C13.4845 5.03125 15.0938 6.63981 15.0938 8.625C15.0938 10.6102 13.4845 12.2188 11.5 12.2188ZM11.5 0C6.73684 0 2.875 3.86184 2.875 8.625C2.875 12.2317 10.0661 23.0079 11.5 23C12.9116 23.0079 20.125 12.1828 20.125 8.625C20.125 3.86184 16.2632 0 11.5 0Z" fill="white"/>
</g>
<defs>
<clipPath id="clip0_197_156">
<rect width="23" height="23" fill="white"/>
</clipPath>
</defs>
</svg>
