<svg width="16" height="29" viewBox="0 0 16 29" fill="none" xmlns="http://www.w3.org/2000/svg">
<path d="M12.0821 9.04178L10.006 6.96575L8.73843 5.69166C8.20163 5.15486 7.32854 5.15486 6.79174 5.69166L3.44161 9.04178C3.00183 9.48156 3.31873 10.2318 3.93313 10.2318H7.56136H11.5905C12.2114 10.2318 12.5219 9.48156 12.0821 9.04178Z" fill="#AB9450"/>
<path d="M3.44039 19.5168L5.51642 21.5928L6.78403 22.8669C7.32083 23.4037 8.19392 23.4037 8.73072 22.8669L12.0809 19.5168C12.5206 19.077 12.2037 18.3268 11.5893 18.3268L7.9611 18.3268L3.93191 18.3268C3.31104 18.3268 3.00061 19.077 3.44039 19.5168Z" fill="#AB9450"/>
</svg>
