<svg width="17" height="17" viewBox="0 0 17 17" fill="none" xmlns="http://www.w3.org/2000/svg">
<path d="M1.4165 6.37484C1.4165 5.03919 1.4165 4.37137 1.83144 3.95644C2.24637 3.5415 2.91419 3.5415 4.24984 3.5415H12.7498C14.0855 3.5415 14.7533 3.5415 15.1682 3.95644C15.5832 4.37137 15.5832 5.03919 15.5832 6.37484C15.5832 6.70875 15.5832 6.87571 15.4795 6.97944C15.3757 7.08317 15.2087 7.08317 14.8748 7.08317H2.12484C1.79093 7.08317 1.62397 7.08317 1.52024 6.97944C1.4165 6.87571 1.4165 6.70875 1.4165 6.37484Z" fill="#AB9450"/>
<path fill-rule="evenodd" clip-rule="evenodd" d="M1.4165 12.75C1.4165 14.0856 1.4165 14.7535 1.83144 15.1684C2.24637 15.5833 2.91419 15.5833 4.24984 15.5833H12.7498C14.0855 15.5833 14.7533 15.5833 15.1682 15.1684C15.5832 14.7535 15.5832 14.0856 15.5832 12.75V9.20833C15.5832 8.87443 15.5832 8.70747 15.4795 8.6037C15.3757 8.5 15.2087 8.5 14.8748 8.5H2.12484C1.79093 8.5 1.62397 8.5 1.52024 8.6037C1.4165 8.70747 1.4165 8.87443 1.4165 9.20833V12.75ZM4.95817 10.625C4.95817 10.2911 4.95817 10.1241 5.06191 10.0204C5.16563 9.91667 5.3326 9.91667 5.6665 9.91667H7.08317C7.41708 9.91667 7.58403 9.91667 7.6878 10.0204C7.7915 10.1241 7.7915 10.2911 7.7915 10.625C7.7915 10.9589 7.7915 11.1259 7.6878 11.2296C7.58403 11.3333 7.41708 11.3333 7.08317 11.3333H5.6665C5.3326 11.3333 5.16563 11.3333 5.06191 11.2296C4.95817 11.1259 4.95817 10.9589 4.95817 10.625ZM5.06191 12.8537C4.95817 12.9575 4.95817 13.1244 4.95817 13.4583C4.95817 13.7922 4.95817 13.9592 5.06191 14.063C5.16563 14.1667 5.3326 14.1667 5.6665 14.1667H7.08317C7.41708 14.1667 7.58403 14.1667 7.6878 14.063C7.7915 13.9592 7.7915 13.7922 7.7915 13.4583C7.7915 13.1244 7.7915 12.9575 7.6878 12.8537C7.58403 12.75 7.41708 12.75 7.08317 12.75H5.6665C5.3326 12.75 5.16563 12.75 5.06191 12.8537ZM9.20817 10.625C9.20817 10.2911 9.20817 10.1241 9.31187 10.0204C9.41564 9.91667 9.5826 9.91667 9.9165 9.91667H11.3332C11.6671 9.91667 11.834 9.91667 11.9378 10.0204C12.0415 10.1241 12.0415 10.2911 12.0415 10.625C12.0415 10.9589 12.0415 11.1259 11.9378 11.2296C11.834 11.3333 11.6671 11.3333 11.3332 11.3333H9.9165C9.5826 11.3333 9.41564 11.3333 9.31187 11.2296C9.20817 11.1259 9.20817 10.9589 9.20817 10.625ZM9.31187 12.8537C9.20817 12.9575 9.20817 13.1244 9.20817 13.4583C9.20817 13.7922 9.20817 13.9592 9.31187 14.063C9.41564 14.1667 9.5826 14.1667 9.9165 14.1667H11.3332C11.6671 14.1667 11.834 14.1667 11.9378 14.063C12.0415 13.9592 12.0415 13.7922 12.0415 13.4583C12.0415 13.1244 12.0415 12.9575 11.9378 12.8537C11.834 12.75 11.6671 12.75 11.3332 12.75H9.9165C9.5826 12.75 9.41564 12.75 9.31187 12.8537Z" fill="#AB9450"/>
<path d="M4.9585 2.125V4.25" stroke="#AB9450" stroke-width="1.41667" stroke-linecap="round"/>
<path d="M12.0415 2.125V4.25" stroke="#AB9450" stroke-width="1.41667" stroke-linecap="round"/>
</svg>
